<svg id="svgcontent" width="646.4" height="661.4" x="0" y="0" overflow="visible" xmlns="http://www.w3.org/2000/svg" xmlnsSe="http://imprintnext.com" xmlnsXlink="http://www.w3.org/1999/xlink" viewBox="0 0 646.4 661.4"><!-- Made with luv in USA by ImprintNext - https://imprintnext.com--><defs><clipPath id="bound_0" xe_id="bound_0"><rect id="xe_qvzfz3" x="61.11999999999995" y="145.94469165659004" pointer-events="all" width="524.1600000000001" height="369.5106166868199"></rect></clipPath></defs><g id="bounds" display="none"><path d="M61.11999999999995 145.94469165659004 L585.28 145.94469165659004 L585.28 515.4553083434099 L61.11999999999995 515.4553083434099  Z" x="61.11999999999995" y="145.94469165659004" width="524.1600000000001" height="369.5106166868199" aWidth="8.27" aHeight="5.83" fill="none" stroke="#006400" isBleed="0" safeVal="0" cropVal="0" stroke-miterlimit="null" stroke-width="1" pointer-events="all" id="bound_0" xe_id="bound_0"></path></g><g class="layer" id="Layer_0" xe_id="Layer_0" style="pointer-events:all" clip-path="url(#bound_0)"><title>Layer_0</title><g id="background" type="bg_area_0" pointer-events="none" style="color-interpolation-filters:sRGB;pointer-events: none;"></g><g id="xe_w4pilu" type="text" style="pointer-events: bounding-box;" pointer-events="bounding-box" xe-props="&amp;#35;&amp;#103;&amp;#76;&amp;#73;&amp;#65;&amp;#101;&amp;#122;&amp;#127;&amp;#26;&amp;#68;&amp;#84;&amp;#120;&amp;#44;&amp;#103;&amp;#20;&amp;#18;&amp;#69;&amp;#101;&amp;#32;&amp;#49;&amp;#26;&amp;#10;&amp;#19;&amp;#86;&amp;#27;&amp;#42;&amp;#86;&amp;#94;&amp;#84;&amp;#99;&amp;#44;&amp;#103;&amp;#20;&amp;#18;&amp;#87;&amp;#111;&amp;#54;&amp;#49;&amp;#26;&amp;#10;&amp;#74;&amp;#34;&amp;#32;&amp;#32;&amp;#103;&amp;#89;&amp;#85;&amp;#34;&amp;#98;&amp;#116;&amp;#10;&amp;#6;&amp;#29;&amp;#34;&amp;#54;&amp;#36;&amp;#85;&amp;#85;&amp;#19;&amp;#58;&amp;#122;&amp;#2;&amp;#81;&amp;#92;&amp;#67;&amp;#111;&amp;#33;&amp;#104;&amp;#112;&amp;#85;&amp;#80;&amp;#118;&amp;#33;&amp;#103;&amp;#20;&amp;#18;&amp;#65;&amp;#114;&amp;#49;&amp;#38;&amp;#93;&amp;#18;&amp;#11;&amp;#48;&amp;#116;&amp;#103;&amp;#94;&amp;#95;&amp;#95;&amp;#116;&amp;#7;&amp;#35;&amp;#89;&amp;#93;&amp;#88;&amp;#108;&amp;#33;&amp;#103;&amp;#2;&amp;#18;&amp;#118;&amp;#105;&amp;#52;&amp;#55;&amp;#87;&amp;#73;&amp;#28;&amp;#72;&amp;#61;&amp;#36;&amp;#78;&amp;#73;&amp;#19;&amp;#44;&amp;#122;&amp;#35;&amp;#81;&amp;#92;&amp;#84;&amp;#95;&amp;#54;&amp;#36;&amp;#85;&amp;#85;&amp;#19;&amp;#58;&amp;#122;&amp;#45;&amp;#76;&amp;#68;&amp;#65;&amp;#115;&amp;#98;&amp;#106;&amp;#23;&amp;#89;&amp;#92;&amp;#112;&amp;#42;&amp;#44;&amp;#86;&amp;#68;&amp;#95;&amp;#101;&amp;#32;&amp;#49;&amp;#22;&amp;#89;&amp;#94;&amp;#47;&amp;#32;&amp;#32;&amp;#76;&amp;#95;&amp;#94;&amp;#108;&amp;#119;&amp;#36;&amp;#75;&amp;#67;&amp;#84;&amp;#116;&amp;#43;&amp;#106;&amp;#94;&amp;#95;&amp;#95;&amp;#116;&amp;#43;&amp;#106;&amp;#10;&amp;#0;&amp;#3;&amp;#49;&amp;#104;&amp;#113;&amp;#8;&amp;#5;&amp;#0;&amp;#50;&amp;#104;&amp;#112;&amp;#8;&amp;#3;&amp;#0;&amp;#56;&amp;#105;&amp;#114;&amp;#22;&amp;#68;&amp;#69;&amp;#102;&amp;#122;&amp;#105;&amp;#26;&amp;#83;&amp;#93;&amp;#111;&amp;#45;&amp;#33;&amp;#103;&amp;#67;&amp;#69;&amp;#111;&amp;#42;&amp;#36;&amp;#95;&amp;#85;&amp;#19;&amp;#58;&amp;#104;&amp;#105;&amp;#26;&amp;#83;&amp;#80;&amp;#116;&amp;#61;&amp;#34;&amp;#87;&amp;#66;&amp;#72;&amp;#95;&amp;#54;&amp;#36;&amp;#85;&amp;#85;&amp;#66;&amp;#34;&amp;#98;&amp;#103;&amp;#121;&amp;#83;&amp;#69;&amp;#105;&amp;#55;&amp;#43;&amp;#20;&amp;#16;&amp;#124;&amp;#105;&amp;#52;&amp;#44;&amp;#76;&amp;#81;&amp;#67;&amp;#121;&amp;#116;&amp;#101;&amp;#126;&amp;#69;&amp;#95;&amp;#44;&amp;#120;&amp;#9;&amp;#87;&amp;#70;&amp;#84;&amp;#44;&amp;#120;&amp;#21;&amp;#74;&amp;#85;&amp;#92;&amp;#105;&amp;#45;&amp;#40;&amp;#24;&amp;#86;&amp;#94;&amp;#110;&amp;#44;&amp;#105;&amp;#24;&amp;#114;&amp;#88;&amp;#98;&amp;#52;&amp;#32;&amp;#24;&amp;#118;&amp;#94;&amp;#110;&amp;#44;&amp;#103;&amp;#69;&amp;#28;&amp;#19;&amp;#102;&amp;#49;&amp;#41;&amp;#84;&amp;#18;&amp;#11;&amp;#34;&amp;#123;&amp;#115;&amp;#13;&amp;#86;&amp;#87;&amp;#102;&amp;#111;&amp;#103;&amp;#20;&amp;#18;&amp;#87;&amp;#105;&amp;#52;&amp;#41;&amp;#118;&amp;#81;&amp;#92;&amp;#101;&amp;#122;&amp;#127;&amp;#26;&amp;#19;&amp;#7;&amp;#53;&amp;#62;&amp;#35;&amp;#94;&amp;#7;&amp;#19;&amp;#44;&amp;#122;&amp;#54;&amp;#76;&amp;#66;&amp;#94;&amp;#107;&amp;#61;&amp;#103;&amp;#2;&amp;#18;&amp;#18;&amp;#48;&amp;#104;&amp;#117;&amp;#8;&amp;#0;&amp;#1;&amp;#34;&amp;#116;&amp;#103;&amp;#75;&amp;#68;&amp;#67;&amp;#111;&amp;#51;&amp;#32;&amp;#118;&amp;#81;&amp;#92;&amp;#101;&amp;#122;&amp;#127;&amp;#26;&amp;#19;&amp;#1;&amp;#48;&amp;#104;&amp;#117;&amp;#8;&amp;#0;&amp;#19;&amp;#44;&amp;#122;&amp;#49;&amp;#93;&amp;#72;&amp;#69;&amp;#76;&amp;#61;&amp;#43;&amp;#26;&amp;#10;&amp;#9;&amp;#44;&amp;#122;&amp;#54;&amp;#76;&amp;#66;&amp;#94;&amp;#107;&amp;#61;&amp;#18;&amp;#81;&amp;#84;&amp;#69;&amp;#104;&amp;#122;&amp;#127;&amp;#8;&amp;#28;&amp;#19;&amp;#110;&amp;#55;&amp;#10;&amp;#94;&amp;#124;&amp;#88;&amp;#110;&amp;#61;&amp;#54;&amp;#26;&amp;#10;&amp;#1;&amp;#44;&amp;#122;&amp;#41;&amp;#81;&amp;#94;&amp;#84;&amp;#83;&amp;#40;&amp;#36;&amp;#91;&amp;#85;&amp;#19;&amp;#58;&amp;#104;&amp;#105;&amp;#26;&amp;#92;&amp;#84;&amp;#116;&amp;#44;&amp;#32;&amp;#74;&amp;#99;&amp;#65;&amp;#97;&amp;#59;&amp;#32;&amp;#26;&amp;#10;&amp;#1;&amp;#44;&amp;#122;&amp;#35;&amp;#87;&amp;#94;&amp;#69;&amp;#83;&amp;#49;&amp;#63;&amp;#93;&amp;#18;&amp;#11;&amp;#57;&amp;#104;&amp;#105;&amp;#26;&amp;#81;&amp;#67;&amp;#116;&amp;#11;&amp;#44;&amp;#66;&amp;#85;&amp;#19;&amp;#58;&amp;#105;&amp;#105;&amp;#26;&amp;#85;&amp;#87;&amp;#102;&amp;#61;&amp;#38;&amp;#76;&amp;#18;&amp;#11;&amp;#34;&amp;#54;&amp;#42;&amp;#86;&amp;#85;&amp;#19;&amp;#44;&amp;#122;&amp;#36;&amp;#84;&amp;#89;&amp;#86;&amp;#110;&amp;#122;&amp;#127;&amp;#26;&amp;#83;&amp;#84;&amp;#110;&amp;#44;&amp;#32;&amp;#74;&amp;#18;&amp;#29;&amp;#34;&amp;#59;&amp;#42;&amp;#84;&amp;#95;&amp;#67;&amp;#115;&amp;#122;&amp;#127;&amp;#99;&amp;#18;&amp;#18;&amp;#54;&amp;#109;&amp;#35;&amp;#94;&amp;#86;&amp;#6;&amp;#34;&amp;#116;&amp;#103;&amp;#27;&amp;#0;&amp;#1;&amp;#48;&amp;#104;&amp;#117;&amp;#8;&amp;#18;&amp;#108;&amp;#44;&amp;#122;&amp;#61;&amp;#93;&amp;#121;&amp;#85;&amp;#34;&amp;#98;&amp;#116;&amp;#10;&amp;#6;&amp;#29;&amp;#34;&amp;#55;&amp;#39;&amp;#82;&amp;#85;&amp;#82;&amp;#116;&amp;#12;&amp;#44;&amp;#76;&amp;#92;&amp;#84;&amp;#34;&amp;#98;&amp;#103;&amp;#26;&amp;#28;&amp;#19;&amp;#111;&amp;#40;&amp;#32;&amp;#74;&amp;#81;&amp;#69;&amp;#105;&amp;#55;&amp;#43;&amp;#26;&amp;#10;&amp;#19;&amp;#117;&amp;#40;&amp;#33;&amp;#89;&amp;#68;&amp;#84;&amp;#34;&amp;#116;&amp;#103;&amp;#81;&amp;#67;&amp;#101;&amp;#101;&amp;#53;&amp;#53;&amp;#84;&amp;#81;&amp;#69;&amp;#101;&amp;#29;&amp;#41;&amp;#93;&amp;#93;&amp;#19;&amp;#58;&amp;#62;&amp;#36;&amp;#84;&amp;#67;&amp;#84;&amp;#44;&amp;#122;&amp;#44;&amp;#75;&amp;#102;&amp;#84;&amp;#114;&amp;#44;&amp;#44;&amp;#91;&amp;#81;&amp;#93;&amp;#34;&amp;#98;&amp;#35;&amp;#89;&amp;#92;&amp;#66;&amp;#101;&amp;#116;&amp;#103;&amp;#81;&amp;#67;&amp;#101;&amp;#101;&amp;#53;&amp;#53;&amp;#84;&amp;#81;&amp;#69;&amp;#101;&amp;#17;&amp;#40;&amp;#95;&amp;#18;&amp;#11;&amp;#102;&amp;#57;&amp;#41;&amp;#75;&amp;#85;&amp;#29;&amp;#34;&amp;#52;&amp;#42;&amp;#91;&amp;#91;&amp;#19;&amp;#58;&amp;#35;&amp;#103;&amp;#91;&amp;#95;&amp;#93;&amp;#111;&amp;#42;&amp;#0;&amp;#92;&amp;#89;&amp;#69;&amp;#34;&amp;#98;&amp;#35;&amp;#89;&amp;#92;&amp;#66;&amp;#101;&amp;#116;&amp;#103;&amp;#92;&amp;#85;&amp;#93;&amp;#101;&amp;#44;&amp;#32;&amp;#26;&amp;#10;&amp;#87;&amp;#97;&amp;#52;&amp;#54;&amp;#93;&amp;#28;&amp;#19;&amp;#109;&amp;#55;&amp;#51;&amp;#93;&amp;#18;&amp;#11;&amp;#102;&amp;#57;&amp;#41;&amp;#75;&amp;#85;&amp;#29;&amp;#34;&amp;#42;&amp;#42;&amp;#76;&amp;#81;&amp;#69;&amp;#101;&amp;#122;&amp;#127;&amp;#94;&amp;#81;&amp;#93;&amp;#115;&amp;#61;&amp;#105;&amp;#26;&amp;#66;&amp;#84;&amp;#115;&amp;#49;&amp;#63;&amp;#93;&amp;#18;&amp;#11;&amp;#102;&amp;#57;&amp;#41;&amp;#75;&amp;#85;&amp;#29;&amp;#34;&amp;#61;&amp;#33;&amp;#81;&amp;#68;&amp;#119;&amp;#111;&amp;#54;&amp;#49;&amp;#26;&amp;#10;&amp;#87;&amp;#97;&amp;#52;&amp;#54;&amp;#93;&amp;#28;&amp;#19;&amp;#101;&amp;#60;&amp;#44;&amp;#76;&amp;#18;&amp;#11;&amp;#102;&amp;#57;&amp;#41;&amp;#75;&amp;#85;&amp;#76;&amp;#44;&amp;#122;&amp;#44;&amp;#75;&amp;#96;&amp;#80;&amp;#116;&amp;#44;&amp;#32;&amp;#74;&amp;#94;&amp;#119;&amp;#105;&amp;#52;&amp;#41;&amp;#26;&amp;#10;&amp;#87;&amp;#97;&amp;#52;&amp;#54;&amp;#93;&amp;#28;&amp;#19;&amp;#105;&amp;#43;&amp;#21;&amp;#89;&amp;#68;&amp;#69;&amp;#101;&amp;#42;&amp;#43;&amp;#107;&amp;#68;&amp;#67;&amp;#111;&amp;#51;&amp;#32;&amp;#26;&amp;#10;&amp;#87;&amp;#97;&amp;#52;&amp;#54;&amp;#93;&amp;#77;"><rect x="117.77601623535156" y="297.75982666015625" id="xe_fn23id" fill="none" opacity="0" width="65.88" height="65.88"></rect><g id="xe_rbbq0a"><path d="M158.00601623535155,362.1998291015625 L137.84601623535156,362.1998291015625 L117.77601623535156,299.1998291015625 L137.57601623535157,299.1998291015625 L147.92601623535157,339.2498291015625 L158.27601623535156,299.1998291015625 L178.07601623535157,299.1998291015625 L158.00601623535155,362.1998291015625 z" paint-order="stroke" id="xe_deayry" fill="#65fff7" stroke="#000000" stroke-width="0"></path><path d="M213.26601623535157,363.6398291015625 L213.26601623535157,363.6398291015625 Q199.04601623535154,363.6398291015625 189.68601623535156,354.1898291015625 Q180.32601623535157,344.7398291015625 180.32601623535157,330.6998291015625 Q180.32601623535157,316.6598291015625 189.68601623535156,307.2098291015625 Q199.04601623535154,297.7598291015625 213.26601623535157,297.7598291015625 L213.26601623535157,297.7598291015625 Q221.99601623535156,297.7598291015625 229.37601623535156,301.8998291015625 Q236.75601623535158,306.03982910156253 240.89601623535157,313.0598291015625 L240.89601623535157,313.0598291015625 L225.23601623535154,322.0598291015625 Q223.70601623535157,318.9998291015625 220.46601623535156,317.1998291015625 Q217.22601623535155,315.3998291015625 213.26601623535157,315.3998291015625 L213.26601623535157,315.3998291015625 Q206.60601623535155,315.3998291015625 202.46601623535156,319.7198291015625 Q198.32601623535157,324.03982910156253 198.32601623535157,330.6998291015625 Q198.32601623535157,337.3598291015625 202.46601623535156,341.6798291015625 Q206.60601623535155,345.9998291015625 213.26601623535157,345.9998291015625 L213.26601623535157,345.9998291015625 Q217.31601623535158,345.9998291015625 220.50601623535158,344.1998291015625 Q223.70601623535157,342.3998291015625 225.23601623535154,339.2498291015625 L225.23601623535154,339.2498291015625 L240.89601623535157,348.2498291015625 Q236.75601623535158,355.3598291015625 229.37601623535156,359.4998291015625 Q221.99601623535156,363.6398291015625 213.26601623535157,363.6398291015625 z" paint-order="stroke" id="xe_eoliqg" fill="#65fff7" stroke="#000000" stroke-width="0"></path><path d="M268.52601623535156,363.4598291015625 L268.52601623535156,363.4598291015625 Q258.4460162353515,363.4598291015625 251.37601623535156,356.6198291015625 Q244.31601623535158,349.7798291015625 244.31601623535158,339.6998291015625 Q244.31601623535158,329.6198291015625 251.33601623535156,322.7798291015625 Q258.3560162353516,315.9398291015625 268.52601623535156,315.9398291015625 Q278.6960162353515,315.9398291015625 285.71601623535156,322.7798291015625 Q292.7360162353516,329.6198291015625 292.7360162353516,339.6998291015625 Q292.7360162353516,349.7798291015625 285.71601623535156,356.6198291015625 Q278.6960162353515,363.4598291015625 268.52601623535156,363.4598291015625 zM263.08601623535156,345.4098291015625 Q265.1960162353515,347.6198291015625 268.52601623535156,347.6198291015625 Q271.8560162353516,347.6198291015625 273.96601623535156,345.4098291015625 Q276.08601623535156,343.2098291015625 276.08601623535156,339.6998291015625 Q276.08601623535156,336.1898291015625 273.96601623535156,333.9898291015625 Q271.8560162353516,331.7798291015625 268.52601623535156,331.7798291015625 Q265.1960162353515,331.7798291015625 263.08601623535156,333.9898291015625 Q260.96601623535156,336.1898291015625 260.96601623535156,339.6998291015625 Q260.96601623535156,343.2098291015625 263.08601623535156,345.4098291015625 z" paint-order="stroke" id="xe_pxxngy" fill="#65fff7" stroke="#000000" stroke-width="0"></path><path d="M326.66601623535155,315.9398291015625 L326.66601623535155,315.9398291015625 Q334.04601623535154,315.9398291015625 338.4960162353516,321.0298291015625 Q342.95601623535157,326.10982910156247 342.95601623535157,336.1898291015625 L342.95601623535157,336.1898291015625 L342.95601623535157,362.1998291015625 L326.30601623535154,362.1998291015625 L326.30601623535154,337.9898291015625 Q326.30601623535154,331.9598291015625 320.72601623535155,331.9598291015625 L320.72601623535155,331.9598291015625 Q317.7560162353516,331.9598291015625 316.17601623535154,333.8498291015625 Q314.6060162353516,335.7398291015625 314.6060162353516,339.0698291015625 L314.6060162353516,339.0698291015625 L314.6060162353516,362.1998291015625 L297.95601623535157,362.1998291015625 L297.95601623535157,317.1998291015625 L314.6060162353516,317.1998291015625 L314.6060162353516,321.60982910156247 Q318.7460162353516,315.9398291015625 326.66601623535155,315.9398291015625 z" paint-order="stroke" id="xe_vp20yb" fill="#65fff7" stroke="#000000" stroke-width="0"></path><path d="M378.41601623535155,315.9398291015625 L378.41601623535155,315.9398291015625 Q385.79601623535154,315.9398291015625 390.2460162353516,321.0298291015625 Q394.70601623535157,326.10982910156247 394.70601623535157,336.1898291015625 L394.70601623535157,336.1898291015625 L394.70601623535157,362.1998291015625 L378.05601623535154,362.1998291015625 L378.05601623535154,337.9898291015625 Q378.05601623535154,331.9598291015625 372.47601623535155,331.9598291015625 L372.47601623535155,331.9598291015625 Q369.5060162353516,331.9598291015625 367.92601623535154,333.8498291015625 Q366.3560162353516,335.7398291015625 366.3560162353516,339.0698291015625 L366.3560162353516,339.0698291015625 L366.3560162353516,362.1998291015625 L349.70601623535157,362.1998291015625 L349.70601623535157,317.1998291015625 L366.3560162353516,317.1998291015625 L366.3560162353516,321.60982910156247 Q370.4960162353516,315.9398291015625 378.41601623535155,315.9398291015625 z" paint-order="stroke" id="xe_wi08s3" fill="#65fff7" stroke="#000000" stroke-width="0"></path><path d="M446.1860162353516,345.3698291015625 L416.30601623535154,345.3698291015625 Q418.46601623535156,349.8698291015625 425.48601623535154,349.8698291015625 L425.48601623535154,349.8698291015625 Q429.6260162353516,349.8698291015625 433.1360162353516,346.9898291015625 L433.1360162353516,346.9898291015625 L444.02601623535156,356.1698291015625 Q437.27601623535156,363.4598291015625 424.9460162353516,363.4598291015625 L424.9460162353516,363.4598291015625 Q413.42601623535154,363.4598291015625 406.4460162353516,356.7598291015625 Q399.47601623535155,350.0498291015625 399.47601623535155,339.8798291015625 L399.47601623535155,339.8798291015625 Q399.47601623535155,329.6198291015625 406.27601623535156,322.7798291015625 Q413.0660162353516,315.9398291015625 423.41601623535155,315.9398291015625 L423.41601623535155,315.9398291015625 Q433.67601623535154,315.9398291015625 440.28601623535155,322.6498291015625 Q446.90601623535156,329.3498291015625 446.90601623535156,339.5198291015625 L446.90601623535156,339.5198291015625 Q446.90601623535156,342.4898291015625 446.1860162353516,345.3698291015625 L446.1860162353516,345.3698291015625 zM416.03601623535155,334.6598291015625 L416.03601623535155,334.6598291015625 L431.15601623535156,334.6598291015625 Q429.6260162353516,329.2598291015625 423.86601623535154,329.2598291015625 L423.86601623535154,329.2598291015625 Q418.0160162353516,329.2598291015625 416.03601623535155,334.6598291015625 z" paint-order="stroke" id="xe_c5ukog" fill="#65fff7" stroke="#000000" stroke-width="0"></path><path d="M473.90601623535156,363.4598291015625 L473.90601623535156,363.4598291015625 Q463.55601623535154,363.4598291015625 456.71601623535156,356.6598291015625 Q449.8760162353516,349.8698291015625 449.8760162353516,339.6998291015625 Q449.8760162353516,329.5298291015625 456.71601623535156,322.7398291015625 Q463.55601623535154,315.9398291015625 473.90601623535156,315.9398291015625 L473.90601623535156,315.9398291015625 Q480.5660162353516,315.9398291015625 486.09601623535156,319.1398291015625 Q491.6360162353516,322.3298291015625 494.60601623535155,327.7298291015625 L494.60601623535155,327.7298291015625 L480.5660162353516,335.7398291015625 Q478.3160162353516,331.9598291015625 473.90601623535156,331.9598291015625 L473.90601623535156,331.9598291015625 Q470.7560162353516,331.9598291015625 468.6360162353516,334.1598291015625 Q466.52601623535156,336.3698291015625 466.52601623535156,339.6998291015625 Q466.52601623535156,343.0298291015625 468.6360162353516,345.2398291015625 Q470.7560162353516,347.4398291015625 473.90601623535156,347.4398291015625 L473.90601623535156,347.4398291015625 Q478.58601623535156,347.4398291015625 480.5660162353516,343.5698291015625 L480.5660162353516,343.5698291015625 L494.60601623535155,351.6698291015625 Q491.6360162353516,357.1598291015625 486.09601623535156,360.3098291015625 Q480.5660162353516,363.4598291015625 473.90601623535156,363.4598291015625 z" paint-order="stroke" id="xe_sky7qp" fill="#65fff7" stroke="#000000" stroke-width="0"></path><path d="M528.8060162353515,317.1998291015625 L528.8060162353515,333.0398291015625 L519.3560162353515,333.0398291015625 L519.3560162353515,342.7598291015625 Q519.3560162353515,345.0098291015625 520.4360162353516,346.0898291015625 Q521.5160162353516,347.1698291015625 523.6260162353516,347.3098291015625 Q525.7460162353516,347.4398291015625 528.8060162353515,347.2598291015625 L528.8060162353515,347.2598291015625 L528.8060162353515,362.1998291015625 Q514.6760162353515,364.1798291015625 508.6860162353516,359.7698291015625 Q502.70601623535157,355.3598291015625 502.70601623535157,343.6598291015625 L502.70601623535157,343.6598291015625 L502.70601623535157,333.0398291015625 L496.40601623535156,333.0398291015625 L496.40601623535156,317.1998291015625 L502.70601623535157,317.1998291015625 L502.70601623535157,309.5498291015625 L519.3560162353515,304.5998291015625 L519.3560162353515,317.1998291015625 L528.8060162353515,317.1998291015625 z" paint-order="stroke" id="xe_au6tww" fill="#65fff7" stroke="#000000" stroke-width="0"></path></g></g></g><g id="borderG" clip-path="url(#bound_0)" display="none"><rect id="border" x="61.11999999999995" y="145.94469165659004" width="524.1600000000001" height="369.5106166868199" aWidth="8.27" aHeight="5.83" fill="none" stroke-width="1" stroke="#000" pointer-events="none"></rect></g></svg>