<svg width="860.2101318359374px" height="217.76000366210937px" xmlns="http://www.w3.org/2000/svg" viewBox="-180.10506591796872 -33.880001831054685 860.2101318359374 217.76000366210937" style="background: rgba(0, 0, 0, 0);" preserveAspectRatio="xMidYMid"><defs><linearGradient id="editing-outline-gradient" x1="-0.41354545764260087" x2="1.4135454576426008" y1="0.09326335692419985" y2="0.9067366430758002"><stop offset="0" stop-color="#ee4208"></stop><stop offset="1" stop-color="#4139ff"></stop></linearGradient><filter id="editing-outline" x="-100%" y="-100%" width="300%" height="300%"><feMorphology in="SourceGraphic" operator="dilate" radius="3" result="outline"></feMorphology><feComposite operator="out" in="outline" in2="SourceAlpha"></feComposite></filter></defs><g filter="url(#editing-outline)"><g transform="translate(-57.39291259646416, 115.4650046825409)"><path d="M72.14-79.82L88.28-79.82L50.49-2.84L50.49-2.84Q49.60-1.06 47.84 0.03L47.84 0.03L47.84 0.03Q46.09 1.11 43.97 1.11L43.97 1.11L43.97 1.11Q41.92 1.11 40.16 0.03L40.16 0.03L40.16 0.03Q38.41-1.06 37.46-2.84L37.46-2.84L-0.28-79.82L15.92-79.82L43.97-22.32L72.14-79.82ZM167.05-14.47L167.05 0L114.83 0L114.83 0Q112.83 0 110.52-0.47L110.52-0.47L110.52-0.47Q108.21-0.95 105.96-1.95L105.96-1.95L105.96-1.95Q103.70-2.95 101.64-4.54L101.64-4.54L101.64-4.54Q99.58-6.12 98.00-8.38L98.00-8.38L98.00-8.38Q96.41-10.63 95.46-13.61L95.46-13.61L95.46-13.61Q94.52-16.59 94.52-20.32L94.52-20.32L94.52-59.50L94.52-59.50Q94.52-61.51 94.99-63.82L94.99-63.82L94.99-63.82Q95.46-66.13 96.47-68.38L96.47-68.38L96.47-68.38Q97.47-70.64 99.08-72.70L99.08-72.70L99.08-72.70Q100.70-74.76 102.95-76.34L102.95-76.34L102.95-76.34Q105.21-77.93 108.16-78.88L108.16-78.88L108.16-78.88Q111.11-79.82 114.83-79.82L114.83-79.82L167.05-79.82L167.05-65.35L114.83-65.35L114.83-65.35Q112.00-65.35 110.49-63.85L110.49-63.85L110.49-63.85Q108.99-62.34 108.99-59.39L108.99-59.39L108.99-20.32L108.99-20.32Q108.99-17.53 110.52-16.00L110.52-16.00L110.52-16.00Q112.05-14.47 114.83-14.47L114.83-14.47L167.05-14.47ZM243.86-39.91L243.86-20.32L243.86-20.32Q243.86-16.59 242.92-13.61L242.92-13.61L242.92-13.61Q241.97-10.63 240.41-8.38L240.41-8.38L240.41-8.38Q238.85-6.12 236.79-4.54L236.79-4.54L236.79-4.54Q234.74-2.95 232.48-1.95L232.48-1.95L232.48-1.95Q230.23-0.95 227.92-0.47L227.92-0.47L227.92-0.47Q225.61 0 223.55 0L223.55 0L197.44 0L197.44 0Q194.43 0 190.87-1.06L190.87-1.06L190.87-1.06Q187.31-2.12 184.28-4.54L184.28-4.54L184.28-4.54Q181.24-6.96 179.21-10.83L179.21-10.83L179.21-10.83Q177.18-14.70 177.18-20.32L177.18-20.32L177.18-39.91L177.18-39.91Q177.18-45.48 179.21-49.35L179.21-49.35L179.21-49.35Q181.24-53.21 184.28-55.64L184.28-55.64L184.28-55.64Q187.31-58.06 190.87-59.12L190.87-59.12L190.87-59.12Q194.43-60.17 197.44-60.17L197.44-60.17L223.55-60.17L223.55-60.17Q229.11-60.17 233.01-58.17L233.01-58.17L233.01-58.17Q236.91-56.17 239.30-53.13L239.30-53.13L239.30-53.13Q241.69-50.10 242.78-46.54L242.78-46.54L242.78-46.54Q243.86-42.97 243.86-39.91L243.86-39.91ZM229.39-20.32L229.39-39.80L229.39-39.80Q229.39-42.81 227.89-44.25L227.89-44.25L227.89-44.25Q226.39-45.70 223.55-45.70L223.55-45.70L197.55-45.70L197.55-45.70Q194.66-45.70 193.15-44.23L193.15-44.23L193.15-44.23Q191.65-42.75 191.65-39.91L191.65-39.91L191.65-20.32L191.65-20.32Q191.65-17.48 193.15-15.98L193.15-15.98L193.15-15.98Q194.66-14.47 197.55-14.47L197.55-14.47L223.55-14.47L223.55-14.47Q226.50-14.47 227.94-15.98L227.94-15.98L227.94-15.98Q229.39-17.48 229.39-20.32L229.39-20.32ZM322.85-33.40L322.85 0L308.38 0L308.38-33.40L308.38-33.40Q308.38-36.24 307.40-38.49L307.40-38.49L307.40-38.49Q306.43-40.75 304.76-42.36L304.76-42.36L304.76-42.36Q303.09-43.97 300.84-44.84L300.84-44.84L300.84-44.84Q298.58-45.70 295.97-45.70L295.97-45.70L270.64-45.70L270.64 0L256.17 0L256.17-52.99L256.17-52.99Q256.17-54.50 256.72-55.80L256.72-55.80L256.72-55.80Q257.28-57.11 258.28-58.09L258.28-58.09L258.28-58.09Q259.28-59.06 260.62-59.62L260.62-59.62L260.62-59.62Q261.96-60.17 263.46-60.17L263.46-60.17L296.08-60.17L296.08-60.17Q298.80-60.17 301.84-59.56L301.84-59.56L301.84-59.56Q304.87-58.95 307.85-57.58L307.85-57.58L307.85-57.58Q310.83-56.22 313.53-54.13L313.53-54.13L313.53-54.13Q316.23-52.05 318.31-49.07L318.31-49.07L318.31-49.07Q320.40-46.09 321.63-42.19L321.63-42.19L321.63-42.19Q322.85-38.30 322.85-33.40L322.85-33.40ZM402.23-33.40L402.23 0L387.76 0L387.76-33.40L387.76-33.40Q387.76-36.24 386.78-38.49L386.78-38.49L386.78-38.49Q385.81-40.75 384.14-42.36L384.14-42.36L384.14-42.36Q382.47-43.97 380.21-44.84L380.21-44.84L380.21-44.84Q377.96-45.70 375.34-45.70L375.34-45.70L350.02-45.70L350.02 0L335.54 0L335.54-52.99L335.54-52.99Q335.54-54.50 336.10-55.80L336.10-55.80L336.10-55.80Q336.66-57.11 337.66-58.09L337.66-58.09L337.66-58.09Q338.66-59.06 340.00-59.62L340.00-59.62L340.00-59.62Q341.33-60.17 342.83-60.17L342.83-60.17L375.45-60.17L375.45-60.17Q378.18-60.17 381.22-59.56L381.22-59.56L381.22-59.56Q384.25-58.95 387.23-57.58L387.23-57.58L387.23-57.58Q390.21-56.22 392.90-54.13L392.90-54.13L392.90-54.13Q395.60-52.05 397.69-49.07L397.69-49.07L397.69-49.07Q399.78-46.09 401.00-42.19L401.00-42.19L401.00-42.19Q402.23-38.30 402.23-33.40L402.23-33.40ZM479.66-40.25L479.66-40.25L479.66-40.25Q479.66-37.24 478.60-33.76L478.60-33.76L478.60-33.76Q477.54-30.28 475.18-27.30L475.18-27.30L475.18-27.30Q472.81-24.33 469.00-22.32L469.00-22.32L469.00-22.32Q465.18-20.32 459.73-20.32L459.73-20.32L433.62-20.32L433.62-34.07L459.73-34.07L459.73-34.07Q462.68-34.07 464.29-35.88L464.29-35.88L464.29-35.88Q465.91-37.68 465.91-40.36L465.91-40.36L465.91-40.36Q465.91-43.20 464.10-44.81L464.10-44.81L464.10-44.81Q462.29-46.42 459.73-46.42L459.73-46.42L433.62-46.42L433.62-46.42Q430.67-46.42 429.06-44.61L429.06-44.61L429.06-44.61Q427.44-42.81 427.44-40.13L427.44-40.13L427.44-19.93L427.44-19.93Q427.44-17.03 429.25-15.42L429.25-15.42L429.25-15.42Q431.06-13.80 433.73-13.80L433.73-13.80L459.73-13.80L459.73 0L433.62 0L433.62 0Q430.62 0 427.14-1.06L427.14-1.06L427.14-1.06Q423.66-2.12 420.68-4.48L420.68-4.48L420.68-4.48Q417.70-6.85 415.70-10.66L415.70-10.66L415.70-10.66Q413.70-14.47 413.70-19.93L413.70-19.93L413.70-40.25L413.70-40.25Q413.70-43.25 414.75-46.73L414.75-46.73L414.75-46.73Q415.81-50.21 418.18-53.19L418.18-53.19L418.18-53.19Q420.54-56.17 424.35-58.17L424.35-58.17L424.35-58.17Q428.17-60.17 433.62-60.17L433.62-60.17L459.73-60.17L459.73-60.17Q462.74-60.17 466.21-59.12L466.21-59.12L466.21-59.12Q469.69-58.06 472.67-55.69L472.67-55.69L472.67-55.69Q475.65-53.33 477.65-49.51L477.65-49.51L477.65-49.51Q479.66-45.70 479.66-40.25ZM547.68-14.47L547.68 0L508.44 0L508.44 0Q505.43 0 501.87-1.06L501.87-1.06L501.87-1.06Q498.30-2.12 495.27-4.54L495.27-4.54L495.27-4.54Q492.24-6.96 490.21-10.83L490.21-10.83L490.21-10.83Q488.17-14.70 488.17-20.32L488.17-20.32L488.17-39.91L488.17-39.91Q488.17-41.97 488.65-44.25L488.65-44.25L488.65-44.25Q489.12-46.54 490.12-48.79L490.12-48.79L490.12-48.79Q491.12-51.04 492.71-53.10L492.71-53.10L492.71-53.10Q494.30-55.16 496.55-56.72L496.55-56.72L496.55-56.72Q498.81-58.28 501.76-59.23L501.76-59.23L501.76-59.23Q504.71-60.17 508.44-60.17L508.44-60.17L547.68-60.17L547.68-45.70L508.44-45.70L508.44-45.70Q505.60-45.70 504.12-44.25L504.12-44.25L504.12-44.25Q502.65-42.81 502.65-39.80L502.65-39.80L502.65-20.32L502.65-20.32Q502.65-17.48 504.15-15.98L504.15-15.98L504.15-15.98Q505.65-14.47 508.55-14.47L508.55-14.47L547.68-14.47ZM614.36-60.17L614.36-45.70L589.09-45.70L589.09 0L574.45 0L574.45-45.70L555.64-45.70L555.64-60.17L574.45-60.17L574.45-79.82L589.09-79.82L589.09-60.17L614.36-60.17Z" fill="url(#editing-outline-gradient)"></path></g></g><style>text {
  font-size: 64px;
  font-family: Arial Black;
  dominant-baseline: central;
  text-anchor: middle;
}</style></svg>