<svg width="786.5749999999999px" height="200.48001098632812px" xmlns="http://www.w3.org/2000/svg" viewBox="-143.28749999999997 -25.240005493164062 786.5749999999999 200.48001098632812" style="background: rgb(51, 44, 44);" preserveAspectRatio="xMidYMid"><defs><filter id="editing-extrusion" x="-100%" y="-100%" width="300%" height="300%"><feFlood result="color1" flood-color="#444444"></feFlood><feConvolveMatrix order="4,4" divisor="1" kernelMatrix="1 0 0 0 0 1 0 0 0 0 1 0 0 0 0 1" in="SourceAlpha" result="extrude"></feConvolveMatrix><feComposite in="color1" in2="extrude" result="comp-extrude" operator="in"></feComposite><feOffset dx="2" dy="2" in="comp-extrude" result="offset-extrude"></feOffset><feMerge><feMergeNode in="offset-extrude"></feMergeNode><feMergeNode in="SourceGraphic"></feMergeNode></feMerge></filter></defs><g filter="url(#editing-extrusion)"><g transform="translate(-30.46291732788086, 111.92000102996826)"><path d="M65.81-72.82L80.54-72.82L46.06-2.59L46.06-2.59Q45.25-0.96 43.65 0.03L43.65 0.03L43.65 0.03Q42.05 1.02 40.12 1.02L40.12 1.02L40.12 1.02Q38.24 1.02 36.64 0.03L36.64 0.03L36.64 0.03Q35.04-0.96 34.18-2.59L34.18-2.59L-0.25-72.82L14.52-72.82L40.12-20.36L65.81-72.82ZM152.39-13.20L152.39 0L104.76 0L104.76 0Q102.93 0 100.83-0.43L100.83-0.43L100.83-0.43Q98.72-0.86 96.66-1.78L96.66-1.78L96.66-1.78Q94.61-2.69 92.73-4.14L92.73-4.14L92.73-4.14Q90.85-5.59 89.40-7.64L89.40-7.64L89.40-7.64Q87.95-9.70 87.09-12.42L87.09-12.42L87.09-12.42Q86.23-15.13 86.23-18.54L86.23-18.54L86.23-54.29L86.23-54.29Q86.23-56.11 86.66-58.22L86.66-58.22L86.66-58.22Q87.09-60.33 88.00-62.38L88.00-62.38L88.00-62.38Q88.92-64.44 90.39-66.32L90.39-66.32L90.39-66.32Q91.86-68.20 93.92-69.65L93.92-69.65L93.92-69.65Q95.98-71.09 98.67-71.96L98.67-71.96L98.67-71.96Q101.36-72.82 104.76-72.82L104.76-72.82L152.39-72.82L152.39-59.62L104.76-59.62L104.76-59.62Q102.17-59.62 100.80-58.25L100.80-58.25L100.80-58.25Q99.43-56.88 99.43-54.18L99.43-54.18L99.43-18.54L99.43-18.54Q99.43-16.00 100.83-14.60L100.83-14.60L100.83-14.60Q102.22-13.20 104.76-13.20L104.76-13.20L152.39-13.20ZM222.47-36.41L222.47-18.54L222.47-18.54Q222.47-15.13 221.61-12.42L221.61-12.42L221.61-12.42Q220.75-9.70 219.32-7.64L219.32-7.64L219.32-7.64Q217.90-5.59 216.02-4.14L216.02-4.14L216.02-4.14Q214.14-2.69 212.09-1.78L212.09-1.78L212.09-1.78Q210.03-0.86 207.92-0.43L207.92-0.43L207.92-0.43Q205.82 0 203.94 0L203.94 0L180.12 0L180.12 0Q177.38 0 174.13-0.96L174.13-0.96L174.13-0.96Q170.88-1.93 168.11-4.14L168.11-4.14L168.11-4.14Q165.34-6.35 163.49-9.88L163.49-9.88L163.49-9.88Q161.64-13.41 161.64-18.54L161.64-18.54L161.64-36.41L161.64-36.41Q161.64-41.49 163.49-45.02L163.49-45.02L163.49-45.02Q165.34-48.55 168.11-50.76L168.11-50.76L168.11-50.76Q170.88-52.96 174.13-53.93L174.13-53.93L174.13-53.93Q177.38-54.89 180.12-54.89L180.12-54.89L203.94-54.89L203.94-54.89Q209.02-54.89 212.57-53.07L212.57-53.07L212.57-53.07Q216.13-51.24 218.31-48.47L218.31-48.47L218.31-48.47Q220.49-45.70 221.48-42.45L221.48-42.45L221.48-42.45Q222.47-39.20 222.47-36.41L222.47-36.41ZM209.27-18.54L209.27-36.31L209.27-36.31Q209.27-39.05 207.90-40.37L207.90-40.37L207.90-40.37Q206.53-41.69 203.94-41.69L203.94-41.69L180.22-41.69L180.22-41.69Q177.58-41.69 176.21-40.35L176.21-40.35L176.21-40.35Q174.84-39 174.84-36.41L174.84-36.41L174.84-18.54L174.84-18.54Q174.84-15.95 176.21-14.57L176.21-14.57L176.21-14.57Q177.58-13.20 180.22-13.20L180.22-13.20L203.94-13.20L203.94-13.20Q206.63-13.20 207.95-14.57L207.95-14.57L207.95-14.57Q209.27-15.95 209.27-18.54L209.27-18.54ZM294.53-30.47L294.53 0L281.33 0L281.33-30.47L281.33-30.47Q281.33-33.06 280.44-35.12L280.44-35.12L280.44-35.12Q279.55-37.17 278.03-38.64L278.03-38.64L278.03-38.64Q276.50-40.12 274.45-40.90L274.45-40.90L274.45-40.90Q272.39-41.69 270.00-41.69L270.00-41.69L246.90-41.69L246.90 0L233.70 0L233.70-48.34L233.70-48.34Q233.70-49.71 234.20-50.91L234.20-50.91L234.20-50.91Q234.71-52.10 235.63-52.99L235.63-52.99L235.63-52.99Q236.54-53.88 237.76-54.39L237.76-54.39L237.76-54.39Q238.98-54.89 240.35-54.89L240.35-54.89L270.11-54.89L270.11-54.89Q272.59-54.89 275.36-54.34L275.36-54.34L275.36-54.34Q278.13-53.78 280.85-52.53L280.85-52.53L280.85-52.53Q283.56-51.29 286.03-49.38L286.03-49.38L286.03-49.38Q288.49-47.48 290.39-44.76L290.39-44.76L290.39-44.76Q292.30-42.05 293.41-38.49L293.41-38.49L293.41-38.49Q294.53-34.94 294.53-30.47L294.53-30.47ZM366.95-30.47L366.95 0L353.74 0L353.74-30.47L353.74-30.47Q353.74-33.06 352.85-35.12L352.85-35.12L352.85-35.12Q351.96-37.17 350.44-38.64L350.44-38.64L350.44-38.64Q348.92-40.12 346.86-40.90L346.86-40.90L346.86-40.90Q344.80-41.69 342.42-41.69L342.42-41.69L319.31-41.69L319.31 0L306.11 0L306.11-48.34L306.11-48.34Q306.11-49.71 306.62-50.91L306.62-50.91L306.62-50.91Q307.13-52.10 308.04-52.99L308.04-52.99L308.04-52.99Q308.95-53.88 310.17-54.39L310.17-54.39L310.17-54.39Q311.39-54.89 312.76-54.89L312.76-54.89L342.52-54.89L342.52-54.89Q345.01-54.89 347.78-54.34L347.78-54.34L347.78-54.34Q350.54-53.78 353.26-52.53L353.26-52.53L353.26-52.53Q355.98-51.29 358.44-49.38L358.44-49.38L358.44-49.38Q360.90-47.48 362.81-44.76L362.81-44.76L362.81-44.76Q364.71-42.05 365.83-38.49L365.83-38.49L365.83-38.49Q366.95-34.94 366.95-30.47L366.95-30.47ZM437.58-36.71L437.58-36.71L437.58-36.71Q437.58-33.97 436.62-30.80L436.62-30.80L436.62-30.80Q435.65-27.63 433.49-24.91L433.49-24.91L433.49-24.91Q431.34-22.19 427.86-20.36L427.86-20.36L427.86-20.36Q424.38-18.54 419.40-18.54L419.40-18.54L395.59-18.54L395.59-31.08L419.40-31.08L419.40-31.08Q422.09-31.08 423.57-32.73L423.57-32.73L423.57-32.73Q425.04-34.38 425.04-36.82L425.04-36.82L425.04-36.82Q425.04-39.41 423.39-40.88L423.39-40.88L423.39-40.88Q421.74-42.35 419.40-42.35L419.40-42.35L395.59-42.35L395.59-42.35Q392.89-42.35 391.42-40.70L391.42-40.70L391.42-40.70Q389.95-39.05 389.95-36.61L389.95-36.61L389.95-18.18L389.95-18.18Q389.95-15.54 391.60-14.07L391.60-14.07L391.60-14.07Q393.25-12.59 395.69-12.59L395.69-12.59L419.40-12.59L419.40 0L395.59 0L395.59 0Q392.84 0 389.67-0.96L389.67-0.96L389.67-0.96Q386.50-1.93 383.78-4.09L383.78-4.09L383.78-4.09Q381.06-6.25 379.23-9.72L379.23-9.72L379.23-9.72Q377.41-13.20 377.41-18.18L377.41-18.18L377.41-36.71L377.41-36.71Q377.41-39.46 378.37-42.63L378.37-42.63L378.37-42.63Q379.34-45.80 381.49-48.52L381.49-48.52L381.49-48.52Q383.65-51.24 387.13-53.07L387.13-53.07L387.13-53.07Q390.61-54.89 395.59-54.89L395.59-54.89L419.40-54.89L419.40-54.89Q422.14-54.89 425.32-53.93L425.32-53.93L425.32-53.93Q428.49-52.96 431.21-50.81L431.21-50.81L431.21-50.81Q433.93-48.65 435.75-45.17L435.75-45.17L435.75-45.17Q437.58-41.69 437.58-36.71ZM499.64-13.20L499.64 0L463.84 0L463.84 0Q461.09 0 457.84-0.96L457.84-0.96L457.84-0.96Q454.59-1.93 451.83-4.14L451.83-4.14L451.83-4.14Q449.06-6.35 447.21-9.88L447.21-9.88L447.21-9.88Q445.35-13.41 445.35-18.54L445.35-18.54L445.35-36.41L445.35-36.41Q445.35-38.29 445.78-40.37L445.78-40.37L445.78-40.37Q446.21-42.45 447.13-44.51L447.13-44.51L447.13-44.51Q448.04-46.57 449.49-48.45L449.49-48.45L449.49-48.45Q450.94-50.32 452.99-51.75L452.99-51.75L452.99-51.75Q455.05-53.17 457.74-54.03L457.74-54.03L457.74-54.03Q460.43-54.89 463.84-54.89L463.84-54.89L499.64-54.89L499.64-41.69L463.84-41.69L463.84-41.69Q461.25-41.69 459.90-40.37L459.90-40.37L459.90-40.37Q458.55-39.05 458.55-36.31L458.55-36.31L458.55-18.54L458.55-18.54Q458.55-15.95 459.93-14.57L459.93-14.57L459.93-14.57Q461.30-13.20 463.94-13.20L463.94-13.20L499.64-13.20ZM560.47-54.89L560.47-41.69L537.42-41.69L537.42 0L524.06 0L524.06-41.69L506.90-41.69L506.90-54.89L524.06-54.89L524.06-72.82L537.42-72.82L537.42-54.89L560.47-54.89Z" fill="#ccc"></path></g></g><style>text {
  font-size: 64px;
  font-family: Arial Black;
  dominant-baseline: central;
  text-anchor: middle;
}</style></svg>